<svg id="Layer_1" data-name="Layer 1" xmlns="http://www.w3.org/2000/svg" viewBox="0 0 512 512"><defs><style>.cls-1{fill:#373737;}</style></defs><path class="cls-1" d="M150,265.1H457.9L511.7,68.8H102.6L88.7,10.9H7.5v14H77.7l83.2,345.2H475.3v-14H172ZM493.3,82.8,447.2,251.1H146.6L106,82.8Z"/><path class="cls-1" d="M229.7,404.2a48.5,48.5,0,1,0,48.4,48.4A48.4,48.4,0,0,0,229.7,404.2Zm0,82.9a34.5,34.5,0,1,1,34.4-34.5A34.5,34.5,0,0,1,229.7,487.1Z"/><path class="cls-1" d="M413.8,404.2a48.5,48.5,0,1,0,48.4,48.4A48.4,48.4,0,0,0,413.8,404.2Zm0,82.9a34.5,34.5,0,1,1,34.4-34.5A34.5,34.5,0,0,1,413.8,487.1Z"/></svg>