<svg id="Layer_1" data-name="Layer 1" xmlns="http://www.w3.org/2000/svg" viewBox="0 0 512 512"><defs><style>.cls-1{fill:#373737;}</style></defs><path class="cls-1" d="M508.8,500.6,357,348.7a203.7,203.7,0,0,0,56.1-140.4C413.1,95.7,321.5,4.1,208.9,4.1S4.7,95.7,4.7,208.3,96.3,412.5,208.9,412.5A203.7,203.7,0,0,0,347,358.6L498.9,510.5a7,7,0,0,0,5,2.1,6.7,6.7,0,0,0,4.9-2.1A6.9,6.9,0,0,0,508.8,500.6ZM18.7,208.3C18.7,103.4,104,18.1,208.9,18.1s190.2,85.3,190.2,190.2S313.8,398.5,208.9,398.5,18.7,313.2,18.7,208.3Z"/></svg>